<svg width="218" height="220" viewBox="0 0 218 220" fill="none" xmlns="http://www.w3.org/2000/svg">
<path d="M108.745 168.944L97.563 157.635L144.685 109.976L97.563 62.3264L108.745 51.0171L167.04 109.976L108.745 168.944Z" fill="#24072A"/>
<path d="M92.7512 152.849L50.3611 109.976L92.7512 67.1123L103.924 78.4119L72.7154 109.976L103.924 141.549L92.7512 152.849Z" fill="#24072A"/>
<path d="M185.653 141.704L174.557 130.317L194.926 110.005L174.557 89.683L185.653 78.3062L217.433 110.005L185.653 141.704Z" fill="#24072A"/>
<path d="M31.7807 141.685L0 109.976L31.7807 78.2773L42.8767 89.6638L22.5165 109.976L42.8767 130.298L31.7807 141.685Z" fill="#24072A"/>
<path d="M128.801 43.3651L108.718 22.7729L88.634 43.3651L77.3757 32.1427L108.718 0L140.059 32.1427L128.801 43.3651Z" fill="#24072A"/>
<path d="M170.022 26.0156L140.054 32.0562L143.146 47.7368L164.813 43.3655L174.554 53.237L170.185 75.1415L185.679 78.3065L191.728 48.007L170.022 26.0156Z" fill="#24072A"/>
<path d="M47.4199 26.0156L25.6858 47.978L31.6965 78.2776L47.2005 75.1415L42.8498 53.237L52.6101 43.3752L74.2679 47.7754L77.3783 32.1045L47.4199 26.0156Z" fill="#24072A"/>
<path d="M88.6178 176.635L108.701 197.237L128.785 176.635L140.043 187.857L108.701 220L77.3596 187.857L88.6178 176.635Z" fill="#24072A"/>
<path d="M74.2679 172.264L52.6006 176.635L42.8594 166.764L47.2291 144.869L31.7347 141.704L25.6858 171.994L47.3913 193.995L77.3592 187.945L74.2679 172.264Z" fill="#24072A"/>
<path d="M191.739 172.022L185.728 141.723L170.224 144.869L174.575 166.763L164.815 176.625L143.157 172.225L140.046 187.906L170.005 193.994L191.739 172.022Z" fill="#24072A"/>
</svg>
